<?xml version="1.0" encoding="UTF-8" standalone="no"?>
<svg
   width="1200pt"
   height="1200pt"
   version="1.1"
   viewBox="0 0 1200 1200"
   id="svg34"
   sodipodi:docname="noun-vector-612062.svg"
   inkscape:version="1.4.2 (ebf0e940, 2025-05-08)"
   xmlns:inkscape="http://www.inkscape.org/namespaces/inkscape"
   xmlns:sodipodi="http://sodipodi.sourceforge.net/DTD/sodipodi-0.dtd"
   xmlns="http://www.w3.org/2000/svg"
   xmlns:svg="http://www.w3.org/2000/svg">
  <defs
     id="defs34" />
  <sodipodi:namedview
     id="namedview34"
     pagecolor="#505050"
     bordercolor="#eeeeee"
     borderopacity="1"
     inkscape:showpageshadow="0"
     inkscape:pageopacity="0"
     inkscape:pagecheckerboard="0"
     inkscape:deskcolor="#505050"
     inkscape:document-units="pt"
     inkscape:zoom="0.545625"
     inkscape:cx="799.08362"
     inkscape:cy="800.91638"
     inkscape:window-width="3440"
     inkscape:window-height="1387"
     inkscape:window-x="0"
     inkscape:window-y="25"
     inkscape:window-maximized="1"
     inkscape:current-layer="svg34" />
  <path
     d="m179 266.83 496.55 877.73"
     fill-rule="evenodd"
     id="path1" />
  <path
     d="m181.93 265.17 496.56 877.75-5.9023 3.3398-496.56-877.75z"
     id="path2" />
  <path
     d="m81.156 452.98 385.41 677.41"
     fill-rule="evenodd"
     id="path3" />
  <path
     d="m84.082 451.3 385.4 677.43-5.8828 3.3477-385.4-677.43z"
     id="path4" />
  <path
     d="m309.16 150.8 535.67 939.47"
     fill-rule="evenodd"
     id="path5" />
  <path
     d="m312.1 149.11 535.64 939.46-5.8789 3.3516-535.64-939.46z"
     id="path6" />
  <path
     d="m468.48 76.645 521.93 917.48"
     fill-rule="evenodd"
     id="path7" />
  <path
     d="m471.44 74.988 521.96 917.48-5.8828 3.3477-521.96-917.48z"
     id="path8" />
  <path
     d="m657.59 63.516 441.86 771.11"
     fill-rule="evenodd"
     id="path9" />
  <path
     d="m660.55 61.816 441.88 771.06-5.8828 3.3711-441.88-771.06z"
     id="path10" />
  <path
     d="m906.95 151.03 242.78 417.31"
     fill-rule="evenodd"
     id="path11" />
  <path
     d="m909.9 149.36 242.8 417.34-5.8594 3.4102-242.8-417.34z"
     id="path12" />
  <path
     d="m306.41 147.42h602.06v6.7812h-602.06z"
     id="path13" />
  <path
     d="m131.69 327.84 941.79-2.2305"
     fill-rule="evenodd"
     id="path14" />
  <path
     d="m131.69 323.34h941.8v6.7812h-941.8z"
     id="path15" />
  <path
     d="m69.996 495.02h1072.8v6.7812h-1072.8z"
     id="path16" />
  <path
     d="m68.508 670.8h1075v6.8281h-1075z"
     id="path17" />
  <path
     d="m118.18 848.54 974.72-1.2695"
     fill-rule="evenodd"
     id="path18" />
  <path
     d="m118.18 844.49h974.72v6.8398h-974.72z"
     id="path19" />
  <path
     d="m259.75 1019.1h695.12v6.7812h-695.12z"
     id="path20" />
  <path
     d="m62.363 586.7 246.79-438.65"
     fill-rule="evenodd"
     id="path21" />
  <path
     d="m306.35 146.48 5.9062 3.3281-247.07 438.48-5.9062-3.3281z"
     id="path22" />
  <path
     d="m113.29 840.7 443.53-778.66"
     fill-rule="evenodd"
     id="path23" />
  <path
     d="m553.85 60.355 5.8828 3.3477-443.48 778.72-5.8828-3.3477z"
     id="path24" />
  <path
     d="m224.87 994.09 522.97-915.58"
     fill-rule="evenodd"
     id="path25" />
  <path
     d="m744.96 76.859 5.875 3.3594-523.09 915.43-5.875-3.3594z"
     id="path26" />
  <path
     d="m364.75 1090.7 542.62-940.95"
     fill-rule="evenodd"
     id="path27" />
  <path
     d="m904.76 148.2 5.8594 3.3828-543.21 940.65-5.8594-3.3828z"
     id="path28" />
  <path
     d="m532.09 1143.1 509.89-868.92"
     fill-rule="evenodd"
     id="path29" />
  <path
     d="m1039.3 272.61 5.8359 3.4297-510.39 868.64-5.8359-3.4297z"
     id="path30" />
  <path
     d="m742.34 1131.9 387.77-669.65"
     fill-rule="evenodd"
     id="path31" />
  <path
     d="m1127.2 460.61 5.8555 3.3945-387.99 669.5-5.8555-3.3945z"
     id="path32" />
  <path
     d="m805.73 1025.3-1.0781-1.8945-496.67-873.6 202.19-3.3359 0.35938 0.64844 297.53 524.63 202.99-345.65 99.312 173.21-0.35938 0.625zm-493.47-873.06 493.5 868.02 301.71-520.97-96.434-168.19-203.02 345.66-1.0664-1.8945-298.24-525.87z"
     id="path34" />
  <path
     d="M 1012.3746,335.48285 1104.7513,499.31 805.695,1014.5426 315.57328,153.78914 504.58589,153.11921 809.37957,682.51832 Z"
     fill-rule="evenodd"
     id="path33"
     style="fill:#ff0000;stroke:#ff0000"
     sodipodi:nodetypes="ccccccc" />
</svg>
