<svg xmlns="http://www.w3.org/2000/svg" viewBox="59 60 1094 1087"><path d="M306 147h602v6.8H306zM132 323h942v6.8H132zM70 495h1073v6.8H70zm-1 176h1075v6.8H69zm49 173h975v6.8H118zm142 175h695v6.8H260z m179 267 497 878M81 453l385 677M309 151l536 939M468 77l522 917M658 64l442 771M907 151l243 417M132 328l942-2.2M118 849l975-1.3M62 587l247-439M113 841 557 62M225 994 748 79M365 1091l543-941m-376 993 510-869m-300 858 388-670M182 265l497 878-5.9 3.3-497-878zM84 451l385 677-5.9 3.3-385-677zm228-302 536 939-5.9 3.4-536-939zm159-74 522 917-5.9 3.3-522-917zm190-13 442 771-5.9 3.4-442-771zm249 87 243 417-5.9 3.4-243-417z"/><path d="m306 146 5.9 3.3-247 438L59 584zm248-86 5.9 3.3-443 779-5.9-3.3zm191 17 5.9 3.4-523 915-5.9-3.4zm160 71 5.9 3.4-543 941-5.9-3.4zm134 125 5.8 3.4-510 869-5.8-3.4zm88 188 5.9 3.4-388 670-5.9-3.4z"/><path d="m806 1025-1.1-1.9-497-874 202-3.3.36.65 298 525 203-346 99 173-.36.63zM312 152l494 868 302-521-96-168-203 346-1.1-1.9-298-526z"/><path fill="red" d="m1012 335 92 164-299 515-490-861 189-.67 305 529Z"/></svg>